<?xml version="1.0" encoding="UTF-8" standalone="no"?>
<!-- Created using Karbon, part of Calligra: http://www.calligra.org/karbon -->

<svg
   xmlns:dc="http://purl.org/dc/elements/1.1/"
   xmlns:cc="http://creativecommons.org/ns#"
   xmlns:rdf="http://www.w3.org/1999/02/22-rdf-syntax-ns#"
   xmlns:svg="http://www.w3.org/2000/svg"
   xmlns="http://www.w3.org/2000/svg"
   xmlns:sodipodi="http://sodipodi.sourceforge.net/DTD/sodipodi-0.dtd"
   xmlns:inkscape="http://www.inkscape.org/namespaces/inkscape"
   width="400pt"
   height="400pt"
   version="1.1"
   id="svg18"
   sodipodi:docname="logo green clean.svg"
   inkscape:version="0.92.5 (2060ec1f9f, 2020-04-08)">
  <metadata
     id="metadata22">
    <rdf:RDF>
      <cc:Work
         rdf:about="">
        <dc:format>image/svg+xml</dc:format>
        <dc:type
           rdf:resource="http://purl.org/dc/dcmitype/StillImage" />
        <dc:title></dc:title>
      </cc:Work>
    </rdf:RDF>
  </metadata>
  <sodipodi:namedview
     pagecolor="#ffffff"
     bordercolor="#666666"
     borderopacity="1"
     objecttolerance="10"
     gridtolerance="10"
     guidetolerance="10"
     inkscape:pageopacity="0"
     inkscape:pageshadow="2"
     inkscape:window-width="1872"
     inkscape:window-height="1016"
     id="namedview20"
     showgrid="false"
     inkscape:zoom="1.251579"
     inkscape:cx="256.20853"
     inkscape:cy="264.25001"
     inkscape:window-x="0"
     inkscape:window-y="27"
     inkscape:window-maximized="1"
     inkscape:current-layer="svg18" />
  <defs
     id="defs2" />
  <path
     style="fill:none;stroke:#000000;stroke-width:6;stroke-linecap:round;stroke-linejoin:miter;stroke-miterlimit:2"
     inkscape:connector-curvature="0"
     d="M 165.3628,407.6848 V 144.659 c -0.4944,-13.25 5.6468,-39.7512 34.1787,-39.7512 28.532,0 35.9125,23.5294 36.0358,35.2935 v 63.2516 m -93.6193,94.3719 h 87.3045"
     stroke-miterlimit="2.00000000000"
     id="shape0" />
  <path
     style="fill:none;stroke:#000000;stroke-width:6;stroke-linecap:round;stroke-linejoin:miter;stroke-miterlimit:2"
     inkscape:connector-curvature="0"
     d="M 281.0788,407.6848 V 144.659 c -0.4957,-13.25 5.6468,-39.7512 34.1787,-39.7512 28.532,0 35.9125,23.5294 36.0358,35.2935 v 63.2516 m -93.6193,94.3719 h 87.3032"
     stroke-miterlimit="2.00000000000"
     id="shape1" />
  <path
     style="fill:#29aa74;stroke:#000000;stroke-width:0.08503952;stroke-linecap:round;stroke-linejoin:miter;stroke-miterlimit:1.98425543"
     inkscape:connector-curvature="0"
     d="M 52.5539,383.949 C 39.93856,368.565 20.72,330.9465 44.7687,303.5394 c 16.455,-18.7533 30.723,-24.8492 42.5701,-29.9122 9.7975,-4.186 17.9393,-7.66615 24.2944,-17.0082 3.9557,14.985 7.4837,49.7551 -10.0441,68.9588 -4.7044,5.1548 -9.1911,9.8894 -13.3809,14.3094 -13.2537,13.9835 -23.2626,23.1808 -27.9756,34.1908 10.6478,-12.517 21.0128,-9.817 29.7987,-8.94 0.2768,0.027 0.5499,0.054 0.8216,0.082 8.182,0.802 15.5752,-0.287 18.2488,-0.933 -6.2029,14.37 -6.6168,15.329 -21.5289,26.792 -11.9314,9.171 -27.6328,0.481 -33.9925,-5.01 2.0909,-2.698 13.0047,-7.496 20.3374,-6.85 11.2533,0.993 20.7526,-4.587 24.0956,-7.5 -4.9975,3.526 -15.672,5.169 -22.7518,4.386 -15.3912,-1.699 -18.1236,3.277 -18.1236,3.277 0,0 -4.2567,-20.813 15.0762,-41.445 21.1779,-22.6008 21.8522,-32.7972 19.5422,-35.0707 0.4026,3.4034 -1.4406,12.7982 -12.022,23.1506 -6.3186,6.1815 -9.6679,8.8199 -12.2044,10.8192 -2.7756,2.1855 -4.5764,3.6047 -8.2237,8.0524 -6.9818,8.5154 -11.1519,19.6215 -6.7523,39.0605 z"
     stroke-miterlimit="1.98425540600"
     id="shape2" />
  <path
     style="fill:#29aa74;stroke:#000000;stroke-width:0.08503952;stroke-linecap:round;stroke-linejoin:miter;stroke-miterlimit:1.98425543"
     inkscape:connector-curvature="0"
     d="m 44.7687,303.5394 c -24.0487,27.4071 -4.83014,65.0256 7.7852,80.4096 -4.3996,-19.439 -0.2295,-30.5451 6.7523,-39.0605 3.6473,-4.4477 5.4481,-5.8669 8.2237,-8.0524 2.5365,-1.9993 5.8858,-4.6377 12.2044,-10.8192 10.5814,-10.3524 12.4246,-19.7472 12.022,-23.1506 2.31,2.2735 1.6357,12.4699 -19.5422,35.0707 -19.3329,20.632 -15.0762,41.445 -15.0762,41.445 l 3.0947,-5.304 c 4.713,-11.01 14.7219,-20.2073 27.9756,-34.1908 4.1898,-4.42 8.6765,-9.1546 13.3809,-14.3094 17.5278,-19.2037 13.9998,-53.9738 10.0441,-68.9588 -6.3551,9.34205 -14.9737,13.0248 -24.2944,17.0082 -11.8471,5.063 -26.1151,11.1589 -42.5701,29.9122 z"
     stroke-miterlimit="1.98425540600"
     id="shape3" />
  <path
     style="fill:#29aa74;stroke:#000000;stroke-width:0.08503952;stroke-linecap:round;stroke-linejoin:miter;stroke-miterlimit:1.98425543"
     inkscape:connector-curvature="0"
     d="m 357.1692,388.98417 c -11.5401,5.88953 -22.55425,8.81863 -26.6182,9.54713 13.5872,15.2706 14.4931,16.2885 39.7047,22.5858 20.1687,5.0377 40.0066,-15.6834 47.4035,-26.6737 -3.8866,-2.3188 -21.1766,-2.1967 -31.5441,2.9857 -15.9072,7.9518 -31.4094,6.2105 -37.1732,4.3471 8.3469,1.6922 24.273,-2.4459 34.2303,-7.6561 7.9644,-4.1684 23.8943,-4.2363 30.8647,-3.7494 -24.4819,-18.80238 -42.4425,-8.74946 -56.8677,-1.38653 z"
     stroke-miterlimit="1.98425540600"
     id="shape4" />
  <path
     style="fill:#29aa74;stroke:#000000;stroke-width:0.08503952;stroke-linecap:round;stroke-linejoin:miter;stroke-miterlimit:1.98425543"
     inkscape:connector-curvature="0"
     d="m 411.9906,313.7585 c -17.8449,27.9154 -4.88429,61.6495 3.8274,75.0275 -0.4202,-10.723 1.9401,-36.5647 14.7422,-54.158 12.8021,-17.592 15.0127,-40.8697 14.517,-50.3099 2.5503,7.3076 3.9796,27.7418 -10.6971,51.0158 -14.6781,23.2741 -15.058,47.1421 -13.4123,56.1651 14.059,-5.212 50.939,-29.363 52.1922,-71.5175 1.0027,-33.7245 -20.0858,-56.91422 -30.7552,-64.2935 0.9915,3.67769 -8.109,23.1758 -30.4142,58.0705 z"
     stroke-miterlimit="1.98425540600"
     id="shape5" />
  <path
     style="fill:#29aa74;stroke:#000000;stroke-width:0.08503952;stroke-linecap:round;stroke-linejoin:miter;stroke-miterlimit:1.98425543"
     inkscape:connector-curvature="0"
     d="m 430.7862,427.1334 c 5.1473,5.4517 8.5645,11.0909 9.6289,13.2299 6.2721,-10.0278 6.6898,-10.6959 6.0884,-25.7199 -0.4806,-12.01951 -15.2127,-19.66804 -22.51779,-21.9894 -0.65552,2.53525 2.22196,12.1176 6.78539,17.0321 7.0018,7.5416 8.5557,16.4332 8.4563,19.9373 -0.4165,-4.9107 -6.0368,-12.2384 -10.54865,-16.9214 -3.60974,-3.7456 -6.7766,-12.20068 -7.63846,-16.15013 -6.46206,16.65213 3.31281,23.76843 9.74591,30.58153 z"
     stroke-miterlimit="1.98425540600"
     id="shape6" />
  <path
     style="fill:#29aa74;stroke:#000000;stroke-width:0.08503952;stroke-linecap:round;stroke-linejoin:miter;stroke-miterlimit:1.98425543"
     inkscape:connector-curvature="0"
     d="m 491.235,404.3218 c 12.3705,-4.1747 23.7798,-5.4744 27.9381,-5.6028 -11.2986,-17.2208 -12.0522,-18.3683 -36.2573,-28.35325 -19.3648,-7.98699 -42.18704,9.75095 -51.1768,19.61765 3.53299,2.8825 20.7865,5.3046 31.8825,1.6634 17.0271,-5.5877 32.2247,-1.5728 37.6953,1.1336 -8.0712,-2.9152 -24.556,-1.1324 -35.2469,2.5969 -8.5531,2.9844 -24.44279,0.7096 -31.3188,-0.8015 21.6396,22.3429 41.0207,14.9649 56.4839,9.746 z"
     stroke-miterlimit="1.98425540600"
     id="shape7" />
  <path
     style="fill:#29aa74;stroke:#000000;stroke-width:0.08503952;stroke-linecap:round;stroke-linejoin:miter;stroke-miterlimit:1.98425543"
     inkscape:connector-curvature="0"
     d="m 238.8697,33.9131 c -66.14,0 -129.2924,25.5284 -170.03,71.3722 42.567,-47.9023 100.894,-81.4377 170.03,-81.4377 69.135,0 127.464,33.5354 170.03,81.4377 -40.737,-45.8438 -103.89,-71.3722 -170.03,-71.3722 z"
     stroke-miterlimit="1.98425540600"
     id="shape11" />
  <path
     style="fill:#29aa74;fill-rule:evenodd;stroke:#000000;stroke-width:0.08503952;stroke-linecap:round;stroke-linejoin:miter;stroke-miterlimit:1.98425543"
     inkscape:connector-curvature="0"
     d="m 107.80963,435.924 c -38.4214,-28.0848 -72.3028,-66.7276 -86.4838,-113.307 14.8289,48.707 40.3993,92.0881 80.5438,121.434 l 2.9706,-4.063 z m 313.0722,-42.1073 c -47.888,60.9123 -127.93,92.2243 -206.817,83.4633 l -0.555,5.002 -0.556,5.002 c 82.551,9.167 160.652,-28.853 207.928,-93.4673 z"
     stroke-miterlimit="1.98425540600"
     id="shape12" />
</svg>
