<svg xmlns="http://www.w3.org/2000/svg" viewBox="0 0 658.93 162.53" xmlns:v="https://vecta.io/nano"><path d="M81.23 0a81.23 81.23 0 1 0 81.23 81.23A81.24 81.24 0 0 0 81.23 0zm0 142.77a61.54 61.54 0 1 1 61.54-61.54 61.6 61.6 0 0 1-61.54 61.54z" fill="#f0f1f2"/><path d="M71.38 93.1a14.75 14.75 0 0 0 19.7 0V69.5a14.72 14.72 0 0 0-19.7 0zm9.85-53.64a41.76 41.76 0 0 0-29.56 12.26l13.9 13.92a22.14 22.14 0 0 1 31.31 0l13.92-13.92a41.74 41.74 0 0 0-29.58-12.26zM96.9 97a22.13 22.13 0 0 1-31.31 0l-13.9 13.88a41.8 41.8 0 0 0 59.14 0zm-15.7 65.53a20.88 20.88 0 0 0-14.38-21.42h-.08a61.62 61.62 0 0 1-46-49.94h40.8a21.26 21.26 0 0 1 0-19.7H20.7a61.37 61.37 0 0 1 92.43-42.78h0a19.64 19.64 0 0 0 25.6-4.77A81.23 81.23 0 1 0 81.2 162.53z" fill="#ffbb17"/><g fill="#88888c"><path d="M207.87 55.28v35a13.9 13.9 0 0 1-6.54 0v-35h-4.1a5.2 5.2 0 0 1-.39-2.13 5.78 5.78 0 0 1 .39-2.2h4.1v-4.73c0-7.17 3-11.27 11-11.27a26.08 26.08 0 0 1 6.85.86 7.2 7.2 0 0 1 .32 2 7.11 7.11 0 0 1-.32 2 18.55 18.55 0 0 0-4.73-.63c-5.12 0-6.62 2.2-6.62 6.94V51h11.35a5.66 5.66 0 0 1 .4 2.2 5.5 5.5 0 0 1-.4 2.13zm25.47.8s4.73-5.36 14-5.36a8.11 8.11 0 0 1 .31 2.29 7.75 7.75 0 0 1-.31 2.2 16.39 16.39 0 0 0-14 7.18v27.9a16.4 16.4 0 0 1-3.24.39 15.61 15.61 0 0 1-3.31-.39V51.34a15.61 15.61 0 0 1 3.31-.34 15.38 15.38 0 0 1 3.24.39zm20.4 7.17c0-8 4.26-12.53 15.84-12.53 11.83 0 15.53 4.57 15.53 12.53v9a102.66 102.66 0 0 1-12.45.63H260.3v5.52c0 5.6 2.45 8.2 10.4 8.2 8.27 0 13.24-2.75 13.24-2.75a5 5 0 0 1 .47 2.2 4.87 4.87 0 0 1-.47 2.13s-4.5 2.76-13.24 2.76c-12.38 0-16.95-4.57-16.95-12.53zm25.15 5.28v-5.28c0-5.6-2.2-8.2-9.3-8.2s-9.3 2.6-9.3 8.2v5.28zm14.98-5.28c0-8 4.25-12.53 15.84-12.53 11.82 0 15.53 4.57 15.53 12.53v9a102.74 102.74 0 0 1-12.46.63h-12.37v5.52c0 5.6 2.44 8.2 10.4 8.2 8.28 0 13.24-2.75 13.24-2.75a4.87 4.87 0 0 1 .48 2.2 4.79 4.79 0 0 1-.48 2.13s-4.5 2.76-13.24 2.76c-12.37 0-16.94-4.57-16.94-12.53zM319 68.52v-5.28c0-5.6-2.2-8.2-9.3-8.2s-9.3 2.6-9.3 8.2v5.28zm28.08 17.82a6.24 6.24 0 0 1 .32 2 5.52 5.52 0 0 1-.32 1.89 11.67 11.67 0 0 1-4.1.71c-5.9 0-8.1-3.23-8.1-8.83V35.58a13.56 13.56 0 0 1 6.54 0v46.5c0 3.07.94 4.5 3.7 4.5a14.78 14.78 0 0 0 1.97-.23zm30.92.8s-4.73 3.78-13.63 3.78c-7.88 0-10.88-3.86-10.88-10.64V79.1c0-6.3 4-9.7 14.2-10.8L378 67.2v-4.4c0-5.2-2.2-7.72-8.9-7.72-6.54 0-8.67 2.44-8.67 7.56v1a13.92 13.92 0 0 1-3.08.39 14.14 14.14 0 0 1-3.15-.39v-1c0-7.56 3.47-11.9 14.9-11.9 11.27 0 15.37 4.34 15.37 12.06v27.5a15.34 15.34 0 0 1-3.23.39 14.43 14.43 0 0 1-3.24-.39zm-9.22-14.66c-6.62.7-8.75 2.9-8.75 6.62v1.18c0 4.26 1.58 6.3 6.7 6.3 8.12 0 11.27-3.86 11.27-3.86V71.36zm32.07-17.97s4.65-3.78 13.32-3.78S426 55.28 426 63.24v27a15.61 15.61 0 0 1-3.31.39 15.22 15.22 0 0 1-3.23-.39v-27c0-5.6-1.74-8.2-7.4-8.2-8.12 0-11.2 3.86-11.2 3.86v31.37a16.4 16.4 0 0 1-3.24.39 15.61 15.61 0 0 1-3.31-.39V51.34a15.61 15.61 0 0 1 3.31-.39 15.38 15.38 0 0 1 3.24.39zm34.6 8.74c0-8 4.18-12.53 15.45-12.53s14.9 4.57 14.9 12.53v1a12.77 12.77 0 0 1-3 .39 12.39 12.39 0 0 1-2.91-.39v-1c0-5.6-2.13-8.2-9-8.2s-8.9 2.6-8.9 8.2v15.14c0 5.6 2.37 8.2 10 8.2 7.9 0 12.6-2.75 12.6-2.75a4.87 4.87 0 0 1 .48 2.2 4.79 4.79 0 0 1-.48 2.13s-4.25 2.76-12.6 2.76c-12.06 0-16.55-4.57-16.55-12.53zm38.47 0c0-8 4.26-12.53 15.84-12.53 11.83 0 15.53 4.57 15.53 12.53v9a102.66 102.66 0 0 1-12.45.63h-12.38v5.52c0 5.6 2.45 8.2 10.4 8.2 8.27 0 13.24-2.75 13.24-2.75a5 5 0 0 1 .47 2.2 4.87 4.87 0 0 1-.47 2.13s-4.5 2.76-13.24 2.76c-12.38 0-16.95-4.57-16.95-12.53zm25.14 5.28v-5.28c0-5.6-2.2-8.2-9.3-8.2s-9.3 2.6-9.3 8.2v5.28zm22.4-14.02s4.65-3.78 13.24-3.78 11.67 4.57 11.67 12.53v27a15.61 15.61 0 0 1-3.31.39 15.22 15.22 0 0 1-3.23-.39v-27c0-5.6-1.74-8.2-7.26-8.2-8 0-11.1 3.86-11.1 3.86v31.37a16.24 16.24 0 0 1-3.23.39 15.61 15.61 0 0 1-3.31-.39v-54.7a15.24 15.24 0 0 1 3.31-.4 15 15 0 0 1 3.23.4zm59.45 32.63s-4.65 3.78-13.16 3.78S556 86.34 556 78.38v-27a15.61 15.61 0 0 1 3.31-.39 15.22 15.22 0 0 1 3.23.39v27c0 5.6 1.74 8.2 7.25 8.2 8 0 11.12-3.86 11.12-3.86V51.34a16.24 16.24 0 0 1 3.23-.39 15.61 15.61 0 0 1 3.31.39v38.94a15.61 15.61 0 0 1-3.31.39 15.22 15.22 0 0 1-3.23-.39zm22.7-32.63s4.65-3.78 13.32-3.78 11.82 4.57 11.82 12.53v27a13.9 13.9 0 0 1-6.54 0v-27c0-5.6-1.73-8.2-7.4-8.2-8.12 0-11.2 3.86-11.2 3.86v31.37a16.37 16.37 0 0 1-3.23.39 15.49 15.49 0 0 1-3.31-.39V51.34a13.9 13.9 0 0 1 6.54 0zm43.82.94v24.2c0 4.73 1.65 6.93 6.78 6.93a14.36 14.36 0 0 0 4.33-.78 6.19 6.19 0 0 1 0 3.93 20.9 20.9 0 0 1-6.46 1.19C644 90.9 641 86.8 641 79.64v-24.2h-4.1a5.56 5.56 0 0 1-.4-2.13 5.66 5.66 0 0 1 .4-2.2h4.4l.63-7.65a10 10 0 0 1 5.52 0v7.65h11.1a5.66 5.66 0 0 1 .4 2.2 5.56 5.56 0 0 1-.4 2.13zm-450.58 54h2l.54 2.16h.14a5.48 5.48 0 0 1 2.14-1.92 6.51 6.51 0 0 1 3-.67 6.57 6.57 0 0 1 5.36 2.12q1.77 2.13 1.77 6.95a13 13 0 0 1-.6 4.09 8.85 8.85 0 0 1-1.67 3.08 7.38 7.38 0 0 1-2.61 1.94 8.16 8.16 0 0 1-3.4.68 10.69 10.69 0 0 1-2.11-.16 8.19 8.19 0 0 1-1.67-.56v7.5h-2.88zm7.27 2.1a4.22 4.22 0 0 0-2.9 1 5.37 5.37 0 0 0-1.49 2.9v8.93a4.69 4.69 0 0 0 1.47.77 7.35 7.35 0 0 0 2.2.27 4.73 4.73 0 0 0 3.94-1.85 8.7 8.7 0 0 0 1.46-5.45 13.83 13.83 0 0 0-.25-2.69 6 6 0 0 0-.81-2 4 4 0 0 0-1.44-1.31 4.65 4.65 0 0 0-2.18-.57zm11.2 6.9c0-3.05.67-5.38 2-7a7.18 7.18 0 0 1 5.85-2.43 8.49 8.49 0 0 1 3.51.67 6.35 6.35 0 0 1 2.46 1.9 8.24 8.24 0 0 1 1.44 3 14.66 14.66 0 0 1 .47 3.87q0 4.57-2 7a7.21 7.21 0 0 1-5.85 2.43 8.59 8.59 0 0 1-3.51-.66 6.41 6.41 0 0 1-2.47-1.91 8.16 8.16 0 0 1-1.44-3 15 15 0 0 1-.46-3.87zm3 0a12.54 12.54 0 0 0 .27 2.63 6.87 6.87 0 0 0 .85 2.2 4.64 4.64 0 0 0 1.51 1.51 4.27 4.27 0 0 0 2.27.57c3.26 0 4.9-2.28 4.9-6.9a12.06 12.06 0 0 0-.27-2.66 6.86 6.86 0 0 0-.84-2.2 4.48 4.48 0 0 0-1.51-1.49 4.39 4.39 0 0 0-2.27-.56q-4.93-.03-4.92 6.9zm18.97-5.8a6.85 6.85 0 0 1 2.62-2.43 8.16 8.16 0 0 1 3.6-.71 6.24 6.24 0 0 1 5.1 2.16c1.18 1.44 1.78 3.57 1.78 6.38 0 3.24-.7 5.68-2.07 7.34a7.1 7.1 0 0 1-5.78 2.48 6.86 6.86 0 0 1-5.94-2.73c-1.32-1.83-2-4.7-2-8.6a38.13 38.13 0 0 1 .31-5.29 16.13 16.13 0 0 1 .9-3.71 7.34 7.34 0 0 1 1.44-2.41 6.65 6.65 0 0 1 1.9-1.42 8.7 8.7 0 0 1 2.33-.74q1.26-.2 2.7-.36a27.81 27.81 0 0 0 2.93-.41 3.54 3.54 0 0 0 1.71-.85l.32 2.6a3.26 3.26 0 0 1-.79.54 4.21 4.21 0 0 1-1 .36c-.4.1-.9.18-1.46.26s-1.22.13-2 .18a17.56 17.56 0 0 0-2.72.37 4.41 4.41 0 0 0-2 1.05 5.26 5.26 0 0 0-1.33 2.19 16 16 0 0 0-.66 3.77zm.32 5.83a11.34 11.34 0 0 0 .29 2.63 7.05 7.05 0 0 0 .88 2.21 4.2 4.2 0 0 0 1.53 1.49 4.28 4.28 0 0 0 2.19.54 4.13 4.13 0 0 0 3.69-1.78 9.38 9.38 0 0 0 1.21-5.27 11.7 11.7 0 0 0-.25-2.52 6.11 6.11 0 0 0-.79-2 3.78 3.78 0 0 0-1.37-1.3 4.08 4.08 0 0 0-2-.45 4.83 4.83 0 0 0-4.11 1.64 7.76 7.76 0 0 0-1.27 4.81z"/><path d="M253.9 118.43c0-3.05.67-5.38 2-7a7.21 7.21 0 0 1 5.85-2.43 8.49 8.49 0 0 1 3.51.67 6.39 6.39 0 0 1 2.47 1.9 8.58 8.58 0 0 1 1.44 3 15.1 15.1 0 0 1 .46 3.87c0 3-.67 5.38-2 7a7.21 7.21 0 0 1-5.85 2.43 8.65 8.65 0 0 1-3.51-.66 6.41 6.41 0 0 1-2.47-1.91 8.49 8.49 0 0 1-1.44-3 15 15 0 0 1-.46-3.87zm3 0a12.54 12.54 0 0 0 .27 2.63 7.11 7.11 0 0 0 .85 2.2 4.64 4.64 0 0 0 1.51 1.51 4.3 4.3 0 0 0 2.27.57c3.26 0 4.9-2.28 4.9-6.9a12.69 12.69 0 0 0-.27-2.66 7.11 7.11 0 0 0-.85-2.2 4.2 4.2 0 0 0-3.78-2c-3.28-.07-4.92 2.23-4.92 6.86zm28.17-6.43h-5.6v15.48h-2.88V112H271v-2.52h14.1zm2.56-1.24a10.28 10.28 0 0 1 3.18-1.22 18.14 18.14 0 0 1 3.8-.4 7.45 7.45 0 0 1 3 .51 4.2 4.2 0 0 1 1.73 1.31 4.6 4.6 0 0 1 .79 1.78 9.93 9.93 0 0 1 .2 2l-.2 8.1.1 2.52a11.86 11.86 0 0 0 .39 2.19h-2.1l-.76-2.52h-.18a5.18 5.18 0 0 1-.81 1 4.82 4.82 0 0 1-1.17.87 7.43 7.43 0 0 1-1.58.63 7.52 7.52 0 0 1-2.05.25 6.2 6.2 0 0 1-2.14-.36 4.92 4.92 0 0 1-1.71-1 4.76 4.76 0 0 1-1.14-1.6 5.27 5.27 0 0 1-.41-2.12 4.94 4.94 0 0 1 .65-2.65 4.62 4.62 0 0 1 1.81-1.69 9 9 0 0 1 2.81-.9 22.33 22.33 0 0 1 3.62-.27h1a6.78 6.78 0 0 1 1 .07l.1-1.94a3.88 3.88 0 0 0-.79-2.77 4 4 0 0 0-2.88-.8 9 9 0 0 0-1.32.1 12.87 12.87 0 0 0-1.44.26 11.44 11.44 0 0 0-1.4.4 6.39 6.39 0 0 0-1.17.54zm5.1 14.44a5.58 5.58 0 0 0 1.8-.27 5.48 5.48 0 0 0 1.37-.68 4.63 4.63 0 0 0 .95-.92 4.29 4.29 0 0 0 .56-1v-3c-.34 0-.68 0-1-.06h-1a19.37 19.37 0 0 0-2.18.12 7 7 0 0 0-1.87.47 3.33 3.33 0 0 0-1.3.94 2.28 2.28 0 0 0-.48 1.49 2.66 2.66 0 0 0 .9 2.07 3.3 3.3 0 0 0 2.25.84zm60.85-13.2H348v15.48h-2.88V112h-5.6v-2.52h14.1zm2.84-2.53l2.65-.18 3.44-.1c2.37 0 4.08.37 5.1 1.1a3.81 3.81 0 0 1 1.55 3.33 4.66 4.66 0 0 1-.74 2.46 4.35 4.35 0 0 1-2.43 1.79v.14a4.83 4.83 0 0 1 3 1.48 4.51 4.51 0 0 1 .86 2.88 4.43 4.43 0 0 1-2 4.06 11.61 11.61 0 0 1-6 1.26c-1 0-2 0-2.8-.1l-2.56-.2zm6.4 7.56a3.63 3.63 0 0 0 1.26-.22 3.75 3.75 0 0 0 1.1-.59 3.29 3.29 0 0 0 .79-.88 2.11 2.11 0 0 0 .31-1.08 2.19 2.19 0 0 0-.87-2 5.9 5.9 0 0 0-3-.56h-1.82l-1.28.07V117zm-3.53 8c.46 0 .9.1 1.35.1h1.57a7.25 7.25 0 0 0 3.58-.68 2.5 2.5 0 0 0 1.17-2.34 2.61 2.61 0 0 0-1-2.11 5.69 5.69 0 0 0-3.51-.81h-3.16zm14.1-6.6q0-4.58 2-7a7.21 7.21 0 0 1 5.85-2.43 8.42 8.42 0 0 1 3.51.67 6.39 6.39 0 0 1 2.47 1.9 8.24 8.24 0 0 1 1.44 3 15.09 15.09 0 0 1 .47 3.87q0 4.57-2 7a7.18 7.18 0 0 1-5.85 2.43 8.65 8.65 0 0 1-3.51-.66 6.38 6.38 0 0 1-2.46-1.91 8.16 8.16 0 0 1-1.44-3 14.55 14.55 0 0 1-.48-3.87zm3 0a12.54 12.54 0 0 0 .27 2.63 7.1 7.1 0 0 0 .84 2.2 4.73 4.73 0 0 0 1.51 1.51 4.3 4.3 0 0 0 2.27.57c3.27 0 4.9-2.28 4.9-6.9a12.69 12.69 0 0 0-.27-2.66 6.87 6.87 0 0 0-.85-2.2 4.2 4.2 0 0 0-3.78-2q-4.9-.08-4.9 6.86zm30.3 7.8a7.88 7.88 0 0 1-2.63 1.21 12 12 0 0 1-3.17.41 9.14 9.14 0 0 1-3.62-.66 6.83 6.83 0 0 1-2.55-1.91 8.14 8.14 0 0 1-1.53-3 13.73 13.73 0 0 1-.51-3.87 12.23 12.23 0 0 1 .62-4 8.13 8.13 0 0 1 1.71-3 7.31 7.31 0 0 1 2.64-1.82 9 9 0 0 1 3.42-.63 15.09 15.09 0 0 1 3 .27 9.16 9.16 0 0 1 2.27.77l-.84 2.52a7.54 7.54 0 0 0-1.93-.76 9 9 0 0 0-2.26-.28 5.45 5.45 0 0 0-4 1.39 6.56 6.56 0 0 0-1.79 4.23h8.54v2.37h-8.57a8.62 8.62 0 0 0 .52 2.27 5.67 5.67 0 0 0 1.16 1.87 5.12 5.12 0 0 0 1.82 1.24 6.8 6.8 0 0 0 2.6.45A7.06 7.06 0 0 0 404 125a6.75 6.75 0 0 0 1.75-.9zm18.86-9.5l.22-3.42h-.18l-1.3 2.77-4.35 7.06h-1l-4.54-7.06-1.2-2.77h-.14l.3 3.38v10.73h-2.67v-18h2.85l5 8.07 1 2.08h.07l1.08-2.16 4.72-8h2.88v18h-2.8zm13.66 4.36l1 3.45h.18l.8-3.5 3.5-11.63h2.88l-5.32 16.17-1.2 3.42a20.86 20.86 0 0 1-1.31 2.95 7.61 7.61 0 0 1-1.62 2.07 3.14 3.14 0 0 1-2.09.77 5.4 5.4 0 0 1-2.13-.36l.5-2.48a2.49 2.49 0 0 0 .9.18 2.65 2.65 0 0 0 1.94-1.06 8.66 8.66 0 0 0 1.55-3.66l-7.24-18h3.32zm27.9 6.48a5 5 0 0 1-1.28.25h-1.2a6 6 0 0 1-5-2.3c-1.17-1.54-1.76-3.9-1.76-7.13s.65-5.4 1.94-7a6.9 6.9 0 0 1 5.62-2.34 8.63 8.63 0 0 1 1.73.15v-7.06h2.73v7.1l1.15-.14c.33-.02.66 0 1 0a6.73 6.73 0 0 1 5.36 2.07q1.8 2.07 1.8 6.86a15.6 15.6 0 0 1-.49 4.09 8.85 8.85 0 0 1-1.42 3.08 6.43 6.43 0 0 1-2.28 1.94 6.76 6.76 0 0 1-3.12.68h-.95a4.17 4.17 0 0 1-1-.2v7h-2.73zm-1.77-2.1a8.44 8.44 0 0 0 .87 0 7 7 0 0 0 .93-.14v-13.7c-.3 0-.56-.08-.8-.1a8.08 8.08 0 0 0-.92 0 4.09 4.09 0 0 0-3.47 1.67 8.86 8.86 0 0 0-1.24 5.24 13.75 13.75 0 0 0 .27 2.81 7.21 7.21 0 0 0 .84 2.25 4.23 4.23 0 0 0 1.46 1.48 4.08 4.08 0 0 0 2.07.48zm6.1-14h-.78a4 4 0 0 0-.84.16v13.68a4.77 4.77 0 0 0 .81.09h1a3.82 3.82 0 0 0 3.47-1.91 10.63 10.63 0 0 0 1.17-5.51 9.18 9.18 0 0 0-1.06-4.8 4 4 0 0 0-3.77-1.68zm11.03 6.95c0-3.05.67-5.38 2-7a7.21 7.21 0 0 1 5.85-2.43 8.42 8.42 0 0 1 3.51.67 6.39 6.39 0 0 1 2.47 1.9 8.24 8.24 0 0 1 1.44 3 15.09 15.09 0 0 1 .47 3.87q0 4.57-2 7a7.21 7.21 0 0 1-5.85 2.43 8.65 8.65 0 0 1-3.51-.66 6.3 6.3 0 0 1-2.46-1.91 8.16 8.16 0 0 1-1.44-3 14.55 14.55 0 0 1-.48-3.87zm3 0a12.54 12.54 0 0 0 .27 2.63 7.1 7.1 0 0 0 .84 2.2 4.73 4.73 0 0 0 1.51 1.51 4.3 4.3 0 0 0 2.27.57c3.27 0 4.9-2.28 4.9-6.9a12.69 12.69 0 0 0-.27-2.66 7.11 7.11 0 0 0-.85-2.2 4.2 4.2 0 0 0-3.78-2q-4.9-.08-4.9 6.86zm17.3-9h2l.54 2.16h.14a5.51 5.51 0 0 1 2.15-1.92 6.46 6.46 0 0 1 3-.67 6.61 6.61 0 0 1 5.37 2.12q1.75 2.13 1.76 6.95a13.33 13.33 0 0 1-.59 4.09 9 9 0 0 1-1.68 3.08 7.38 7.38 0 0 1-2.61 1.94 8.16 8.16 0 0 1-3.4.68 10.51 10.51 0 0 1-2.1-.16 8.26 8.26 0 0 1-1.68-.56v7.5h-2.88zm7.27 2.1a4.18 4.18 0 0 0-2.89 1 5.38 5.38 0 0 0-1.5 2.9v8.93a4.63 4.63 0 0 0 1.48.77 7.24 7.24 0 0 0 2.19.27 4.73 4.73 0 0 0 3.94-1.85 8.64 8.64 0 0 0 1.46-5.45 13.09 13.09 0 0 0-.25-2.69 6 6 0 0 0-.81-2 3.86 3.86 0 0 0-1.44-1.31 4.62 4.62 0 0 0-2.21-.57zm27.07 5.2l.22-3.42h-.18l-1.3 2.77-4.35 7.06h-1l-4.5-7.06-1.2-2.77h-.15l.3 3.38v10.73h-2.66v-18h2.84l5 8.07 1 2.08h.08l1.08-2.16 4.7-8h2.88v18h-2.78zm8.07-5.98a10.28 10.28 0 0 1 3.18-1.22 18.14 18.14 0 0 1 3.8-.4 7.45 7.45 0 0 1 3 .51 4.2 4.2 0 0 1 1.73 1.31 4.6 4.6 0 0 1 .79 1.78 9.93 9.93 0 0 1 .2 2l-.2 8.1.1 2.52a11.86 11.86 0 0 0 .39 2.19H556l-.76-2.52h-.18a5.18 5.18 0 0 1-.81 1 4.82 4.82 0 0 1-1.17.87 7.43 7.43 0 0 1-1.58.63 7.52 7.52 0 0 1-2 .25 6.2 6.2 0 0 1-2.14-.36 4.92 4.92 0 0 1-1.71-1 4.76 4.76 0 0 1-1.14-1.6 5.27 5.27 0 0 1-.41-2.12 4.94 4.94 0 0 1 .65-2.65 4.62 4.62 0 0 1 1.81-1.69 9 9 0 0 1 2.81-.9 22.33 22.33 0 0 1 3.62-.27h1a6.78 6.78 0 0 1 1 .07l.1-1.94a3.88 3.88 0 0 0-.79-2.77 4 4 0 0 0-2.88-.8 9 9 0 0 0-1.32.1 12.87 12.87 0 0 0-1.44.26 11.44 11.44 0 0 0-1.4.4 6.39 6.39 0 0 0-1.17.54zm5.1 14.44a5.58 5.58 0 0 0 1.8-.27 5.48 5.48 0 0 0 1.37-.68 4.63 4.63 0 0 0 .95-.92 4.29 4.29 0 0 0 .56-1v-3c-.34 0-.68 0-1-.06h-1a19.37 19.37 0 0 0-2.18.12 7 7 0 0 0-1.87.47 3.33 3.33 0 0 0-1.3.94 2.28 2.28 0 0 0-.48 1.49 2.66 2.66 0 0 0 .9 2.07 3.3 3.3 0 0 0 2.25.84zm24.5-13.2h-5.62v15.48h-2.88V112h-5.6v-2.52h14.1zm2.84-8a2 2 0 0 1 .56-1.42 1.86 1.86 0 0 1 1.42-.6 2 2 0 0 1 1.48.6 1.89 1.89 0 0 1 .61 1.42 1.74 1.74 0 0 1-.61 1.37 2.16 2.16 0 0 1-1.48.54 2 2 0 0 1-1.42-.54 1.84 1.84 0 0 1-.56-1.37zm.6 5.47h2.88v18h-2.88zM320.34 121.1l1 3.45h.18l.8-3.5 3.5-11.63h2.88l-5.33 16.17-1.2 3.42a19.78 19.78 0 0 1-1.31 2.95 7.61 7.61 0 0 1-1.62 2.07 3.14 3.14 0 0 1-2.09.77 5.35 5.35 0 0 1-2.12-.36l.5-2.48a2.49 2.49 0 0 0 .9.18 2.65 2.65 0 0 0 1.94-1.06 8.66 8.66 0 0 0 1.55-3.66l-7.23-18h3.3z"/></g></svg>