<svg width="209" height="51" viewBox="0 0 209 51" fill="none" xmlns="http://www.w3.org/2000/svg">
<g clip-path="url(#clip0_354_2)">
<path d="M196.802 33.6252H201.591V34.1681H196.802V33.6252ZM198.909 33.9126H199.516V38.511H198.909V33.9126Z" fill="white"/>
<path d="M209 33.6252V38.511H208.425V33.7849H208.681L206.222 38.511H205.583L203.124 33.7849H203.38V38.511H202.805V33.6252H203.731L206.126 38.2874H205.743L208.138 33.6252H209Z" fill="white"/>
<path d="M32.731 7.72774L41.8318 2.20337L54.3494 9.8353C55.5948 10.5698 56.2973 11.8151 56.2973 13.0924V23.4387H45.2486" stroke="white" stroke-width="3.47403" stroke-miterlimit="10"/>
<path d="M46.2067 35.0303H23.9815L12.1664 46.1748V35.0303H1.72437V19.0958C1.72437 17.116 2.84201 15.2319 4.72605 14.0824L23.9815 2.36304L43.205 14.0824C45.0891 15.2319 46.2067 17.116 46.2067 19.0958V35.0303Z" stroke="url(#paint0_linear_354_2)" stroke-width="3.47403" stroke-miterlimit="10"/>
<path d="M70.5396 19.8303V2.20337H73.9564L81.5564 14.6572H79.7362L87.1765 2.20337H90.6253V19.8303H86.7933L86.7295 8.04707H87.4959L81.4925 17.9143H79.6723L73.5732 8.04707H74.4034V19.8303H70.5396Z" fill="url(#paint1_linear_354_2)"/>
<path d="M99.4387 20.0218C98.3849 20.0218 97.4908 19.8302 96.7244 19.479C95.958 19.1277 95.3832 18.6168 94.9681 18.01C94.553 17.4033 94.3295 16.7008 94.3295 15.9025C94.3295 15.1042 94.5211 14.4016 94.9362 13.7949C95.3194 13.1882 95.958 12.7092 96.8202 12.3579C97.6824 12.0067 98.832 11.847 100.237 11.847H103.845V14.1142H100.62C99.6942 14.1142 99.0555 14.2739 98.7043 14.5613C98.353 14.8487 98.1933 15.2319 98.1933 15.7109C98.1933 16.2218 98.3849 16.605 98.8001 16.8924C99.1832 17.1798 99.7261 17.3395 100.429 17.3395C101.099 17.3395 101.706 17.1798 102.249 16.8924C102.792 16.605 103.175 16.126 103.398 15.5193L104.005 17.3714C103.718 18.2016 103.175 18.8722 102.44 19.3193C101.642 19.7983 100.652 20.0218 99.4387 20.0218ZM103.622 19.8302V17.1798L103.366 16.605V11.879C103.366 11.0487 103.111 10.3781 102.6 9.89912C102.089 9.42013 101.291 9.1966 100.205 9.1966C99.4706 9.1966 98.7681 9.32433 98.0656 9.54786C97.3631 9.77139 96.7564 10.0907 96.2454 10.4739L94.8404 7.72769C95.5748 7.18484 96.5009 6.76971 97.5547 6.51425C98.6085 6.22685 99.6622 6.09912 100.78 6.09912C102.856 6.09912 104.484 6.57811 105.634 7.56803C106.783 8.55794 107.358 10.0588 107.358 12.1344V19.8621H103.622V19.8302Z" fill="url(#paint2_linear_354_2)"/>
<path d="M111.541 19.8302V6.29072H115.341V10.1546L114.798 9.005C115.214 8.04702 115.852 7.31257 116.746 6.83357C117.64 6.32265 118.726 6.09912 120.035 6.09912V9.73946C119.876 9.70752 119.748 9.67559 119.588 9.67559C119.429 9.64366 119.301 9.64366 119.173 9.64366C118.056 9.64366 117.161 9.96299 116.491 10.5697C115.82 11.1764 115.501 12.1344 115.501 13.4437V19.8302H111.541Z" fill="url(#paint3_linear_354_2)"/>
<path d="M123.037 19.8302V1.14954H126.997V19.8621H123.037V19.8302ZM126.326 17.0521L126.422 12.2302L132.809 6.25878H137.535L131.404 12.4537L129.328 14.1462L126.326 17.0521ZM133.256 19.8302L128.625 14.1462L131.116 11.1126L138.077 19.8621H133.256V19.8302Z" fill="url(#paint4_linear_354_2)"/>
<path d="M146.667 20.0219C145.102 20.0219 143.729 19.7345 142.58 19.1278C141.398 18.521 140.504 17.6908 139.865 16.637C139.227 15.5832 138.907 14.4017 138.907 13.0605C138.907 11.7194 139.227 10.5059 139.834 9.45213C140.44 8.39835 141.334 7.5681 142.42 6.96138C143.538 6.35466 144.783 6.06726 146.188 6.06726C147.529 6.06726 148.743 6.35466 149.828 6.92945C150.914 7.50424 151.744 8.30255 152.383 9.35634C153.022 10.4101 153.341 11.6555 153.341 13.1244C153.341 13.2841 153.341 13.4437 153.309 13.6353C153.277 13.8269 153.277 14.0185 153.245 14.1782H142.101V11.879H151.138L149.573 12.5496C149.605 11.8471 149.445 11.2404 149.158 10.6975C148.87 10.1866 148.455 9.77146 147.976 9.48407C147.465 9.19667 146.859 9.03701 146.188 9.03701C145.518 9.03701 144.911 9.19667 144.4 9.48407C143.889 9.77146 143.474 10.1866 143.186 10.7294C142.899 11.2723 142.739 11.879 142.739 12.6135V13.2202C142.739 13.9866 142.899 14.6252 143.25 15.2C143.602 15.7429 144.049 16.1899 144.655 16.4773C145.262 16.7647 145.965 16.9244 146.795 16.9244C147.497 16.9244 148.136 16.8286 148.679 16.6051C149.222 16.3815 149.733 16.0622 150.18 15.6152L152.287 17.8824C151.649 18.5849 150.882 19.1278 149.924 19.511C148.998 19.8622 147.913 20.0219 146.667 20.0219Z" fill="url(#paint5_linear_354_2)"/>
<path d="M154.938 9.61175V6.57814H164.454V9.61175H154.938ZM162.155 20.0218C160.526 20.0218 159.281 19.6067 158.386 18.8084C157.492 17.9781 157.045 16.7647 157.045 15.1681V3.28906H161.037V15.1042C161.037 15.679 161.197 16.126 161.484 16.4454C161.771 16.7647 162.186 16.9244 162.697 16.9244C163.336 16.9244 163.879 16.7647 164.326 16.4134L165.38 19.1916C164.997 19.479 164.518 19.7025 163.943 19.8302C163.368 19.958 162.761 20.0218 162.155 20.0218Z" fill="url(#paint6_linear_354_2)"/>
<path d="M170.234 4.37474C169.499 4.37474 168.892 4.15121 168.413 3.73608C167.966 3.32096 167.711 2.81003 167.711 2.17138C167.711 1.56466 167.934 1.0218 168.413 0.606673C168.861 0.191547 169.467 -0.0319824 170.234 -0.0319824C170.968 -0.0319824 171.575 0.159614 172.022 0.57474C172.501 0.957934 172.724 1.46886 172.724 2.10751C172.724 2.7781 172.501 3.28903 172.022 3.73608C171.575 4.18314 171 4.37474 170.234 4.37474ZM168.254 19.8302V6.29071H172.213V19.8621H168.254V19.8302Z" fill="url(#paint7_linear_354_2)"/>
<path d="M184.859 6.06726C185.945 6.06726 186.903 6.29079 187.765 6.70592C188.627 7.12104 189.298 7.79163 189.777 8.68575C190.256 9.57987 190.511 10.6975 190.511 12.0706V19.8303H186.551V12.6773C186.551 11.5916 186.296 10.7933 185.817 10.2505C185.338 9.73953 184.635 9.48407 183.773 9.48407C183.135 9.48407 182.592 9.6118 182.081 9.89919C181.57 10.1547 181.187 10.5698 180.899 11.0807C180.612 11.5916 180.484 12.2942 180.484 13.1563V19.8622H176.524V6.29079H180.324V10.0589L179.622 8.90928C180.101 8.01516 180.803 7.31264 181.729 6.80171C182.656 6.32272 183.677 6.06726 184.859 6.06726Z" fill="url(#paint8_linear_354_2)"/>
<path d="M200.666 19.1916C199.42 19.1916 198.303 18.9042 197.249 18.3614C196.227 17.8185 195.397 17.0521 194.79 16.0622C194.183 15.0723 193.864 13.9227 193.864 12.6135C193.864 11.2723 194.183 10.1227 194.79 9.13281C195.397 8.14289 196.227 7.3765 197.249 6.86558C198.271 6.32272 199.42 6.06726 200.666 6.06726C201.847 6.06726 202.901 6.29079 203.763 6.76978C204.625 7.21684 205.328 7.95129 205.807 8.90928C206.286 9.89919 206.541 11.1126 206.541 12.6135C206.541 14.1143 206.286 15.3278 205.807 16.3177C205.328 17.2757 204.625 18.0101 203.763 18.4572C202.869 18.9362 201.847 19.1916 200.666 19.1916ZM201.304 24.9395C200.027 24.9395 198.782 24.7799 197.568 24.4605C196.355 24.1412 195.365 23.6942 194.566 23.0555L196.131 20.2135C196.738 20.6925 197.472 21.0757 198.334 21.3631C199.197 21.6505 200.091 21.7782 200.985 21.7782C202.39 21.7782 203.412 21.4589 204.05 20.8521C204.689 20.2454 205.008 19.3194 205.008 18.074V16.0622L205.264 12.6454L205.2 9.19667V6.29079H208.968V17.5631C208.968 20.0538 208.298 21.9059 206.988 23.1194C205.679 24.3328 203.763 24.9395 201.304 24.9395ZM201.464 15.9664C202.166 15.9664 202.773 15.8387 203.316 15.5513C203.859 15.2639 204.274 14.8807 204.593 14.3698C204.913 13.8589 205.04 13.2841 205.04 12.6454C205.04 11.9748 204.881 11.4 204.593 10.8891C204.274 10.3782 203.859 10.0269 203.316 9.73953C202.773 9.48407 202.166 9.3244 201.464 9.3244C200.793 9.3244 200.155 9.45213 199.612 9.73953C199.069 9.99499 198.622 10.3782 198.303 10.8891C197.983 11.4 197.824 11.9748 197.824 12.6454C197.824 13.316 197.983 13.8908 198.303 14.3698C198.622 14.8807 199.037 15.2639 199.612 15.5513C200.187 15.8387 200.793 15.9664 201.464 15.9664Z" fill="url(#paint9_linear_354_2)"/>
<path d="M70.5396 47.4202V29.5698H74.6908V47.3883H70.5396V47.4202Z" fill="white"/>
<path d="M96.7882 33.4975C97.8739 33.4975 98.8319 33.721 99.6941 34.1362C100.524 34.5832 101.195 35.2219 101.674 36.116C102.153 37.0101 102.376 38.1597 102.376 39.5328V47.3883H98.4168V40.1395C98.4168 39.0219 98.1933 38.2236 97.7462 37.6807C97.2991 37.1698 96.6605 36.8824 95.8622 36.8824C95.2555 36.8824 94.7445 37.0101 94.2975 37.2656C93.8504 37.521 93.4991 37.9042 93.2437 38.4471C92.9882 38.958 92.8605 39.6286 92.8605 40.4588V47.3244H88.9008V40.0757C88.9008 38.958 88.6773 38.1597 88.2302 37.6168C87.7832 37.1059 87.1445 36.8185 86.2823 36.8185C85.7076 36.8185 85.1966 36.9462 84.7176 37.2017C84.2706 37.4572 83.8874 37.8404 83.6319 38.3832C83.3765 38.8941 83.2487 39.5647 83.2487 40.395V47.2605H79.2891V33.5614H83.0252V37.2656L82.3227 36.1799C82.7697 35.2538 83.4403 34.5513 84.3344 34.0404C85.2286 33.5614 86.2185 33.3059 87.3042 33.3059C88.5496 33.3059 89.6672 33.6252 90.6252 34.2639C91.5832 34.9025 92.1899 35.8605 92.5092 37.1698L91.1042 36.7866C91.5512 35.7328 92.2857 34.9025 93.3076 34.2639C94.2975 33.8168 95.479 33.4975 96.7882 33.4975Z" fill="white"/>
<path d="M113.17 47.6117C111.733 47.6117 110.423 47.2924 109.306 46.6857C108.188 46.0789 107.294 45.2487 106.655 44.163C106.017 43.1092 105.697 41.8958 105.697 40.5226C105.697 39.1495 106.017 37.9361 106.655 36.8823C107.294 35.8285 108.188 34.9983 109.306 34.3916C110.423 33.7848 111.733 33.4974 113.17 33.4974C114.639 33.4974 115.916 33.7848 117.065 34.3916C118.215 34.9983 119.109 35.8285 119.748 36.8823C120.386 37.9361 120.706 39.1495 120.706 40.5226C120.706 41.8958 120.386 43.1092 119.748 44.163C119.109 45.2168 118.215 46.047 117.065 46.6537C115.948 47.3243 114.639 47.6117 113.17 47.6117ZM113.17 44.3546C113.84 44.3546 114.447 44.1949 114.958 43.9075C115.469 43.6201 115.884 43.1731 116.203 42.5983C116.523 42.0235 116.682 41.3529 116.682 40.5546C116.682 39.7563 116.523 39.0857 116.203 38.5109C115.884 37.9361 115.469 37.521 114.958 37.2336C114.447 36.9462 113.84 36.7865 113.202 36.7865C112.531 36.7865 111.956 36.9462 111.413 37.2336C110.902 37.521 110.455 37.968 110.168 38.5109C109.849 39.0857 109.689 39.7563 109.689 40.5546C109.689 41.321 109.849 42.0235 110.168 42.5983C110.487 43.1731 110.902 43.6201 111.413 43.9075C111.956 44.1949 112.531 44.3546 113.17 44.3546Z" fill="white"/>
<path d="M123.963 47.4201V28.5159H127.923V36.4991L127.667 40.5545L127.731 44.6419V47.452H123.963V47.4201ZM132.042 47.6117C130.861 47.6117 129.839 47.3562 128.977 46.8453C128.114 46.3344 127.444 45.568 126.965 44.5142C126.518 43.4604 126.262 42.1512 126.262 40.5545C126.262 38.926 126.518 37.6167 126.997 36.5949C127.476 35.573 128.146 34.7747 129.009 34.2638C129.871 33.7528 130.861 33.4974 132.01 33.4974C133.319 33.4974 134.501 33.7848 135.523 34.3915C136.545 34.9663 137.375 35.7965 137.982 36.8503C138.588 37.9041 138.876 39.1495 138.876 40.5545C138.876 41.9596 138.588 43.2369 137.982 44.2587C137.375 45.3125 136.577 46.1428 135.523 46.7176C134.533 47.3243 133.351 47.6117 132.042 47.6117ZM131.403 44.3545C132.074 44.3545 132.649 44.1949 133.16 43.9075C133.671 43.6201 134.086 43.173 134.405 42.5982C134.724 42.0234 134.884 41.3528 134.884 40.5545C134.884 39.7562 134.724 39.0856 134.405 38.5108C134.086 37.936 133.671 37.5209 133.16 37.2335C132.649 36.9461 132.042 36.7865 131.403 36.7865C130.733 36.7865 130.158 36.9461 129.615 37.2335C129.104 37.5209 128.657 37.968 128.37 38.5108C128.051 39.0856 127.891 39.7562 127.891 40.5545C127.891 41.3209 128.051 42.0234 128.37 42.5982C128.689 43.173 129.104 43.6201 129.615 43.9075C130.126 44.1949 130.733 44.3545 131.403 44.3545Z" fill="white"/>
<path d="M144.145 31.8052C143.41 31.8052 142.803 31.5816 142.324 31.1665C141.877 30.7514 141.622 30.2085 141.622 29.6018C141.622 28.9631 141.845 28.4522 142.324 28.0371C142.771 27.622 143.378 27.3984 144.145 27.3984C144.879 27.3984 145.486 27.59 145.933 28.0052C146.412 28.4203 146.635 28.9312 146.635 29.5379C146.635 30.2085 146.412 30.7514 145.933 31.1665C145.518 31.5816 144.911 31.8052 144.145 31.8052ZM142.165 47.4203V33.7211H146.124V47.4203H142.165Z" fill="white"/>
<path d="M150.435 47.4201V28.5159H154.395V47.4201H150.435Z" fill="white"/>
<path d="M160.718 31.8052C159.983 31.8052 159.377 31.5816 158.898 31.1665C158.451 30.7514 158.195 30.2085 158.195 29.6018C158.195 28.9631 158.419 28.4522 158.898 28.0371C159.345 27.622 159.951 27.3984 160.718 27.3984C161.452 27.3984 162.059 27.59 162.506 28.0052C162.985 28.4203 163.209 28.9312 163.209 29.5379C163.209 30.2085 162.985 30.7514 162.506 31.1665C162.059 31.5816 161.452 31.8052 160.718 31.8052ZM158.738 47.4203V33.7211H162.698V47.4203H158.738Z" fill="white"/>
<path d="M171.224 47.6118C170.17 47.6118 169.276 47.4202 168.509 47.0689C167.743 46.7177 167.168 46.2067 166.753 45.5681C166.338 44.9294 166.114 44.2269 166.114 43.4605C166.114 42.6622 166.306 41.9597 166.721 41.321C167.104 40.7143 167.743 40.2353 168.605 39.884C169.467 39.5328 170.617 39.3731 172.022 39.3731H175.63V41.6723H172.437C171.511 41.6723 170.872 41.8319 170.521 42.1193C170.17 42.4387 170.01 42.8219 170.01 43.2689C170.01 43.7798 170.202 44.195 170.617 44.4824C171 44.7698 171.543 44.9294 172.245 44.9294C172.916 44.9294 173.523 44.7698 174.066 44.4824C174.608 44.163 174.992 43.716 175.215 43.0773L175.822 44.9294C175.535 45.7916 174.992 46.4303 174.257 46.9092C173.427 47.3882 172.437 47.6118 171.224 47.6118ZM175.407 47.4202V44.7378L175.151 44.163V39.3731C175.151 38.5109 174.896 37.8723 174.385 37.3933C173.874 36.9143 173.076 36.6908 171.99 36.6908C171.256 36.6908 170.553 36.8185 169.851 37.042C169.148 37.2656 168.541 37.5849 168.03 37.9681L166.625 35.1899C167.36 34.6471 168.286 34.2319 169.34 33.9445C170.393 33.6572 171.447 33.5294 172.565 33.5294C174.64 33.5294 176.269 34.0084 177.419 34.9983C178.568 35.9882 179.143 37.521 179.143 39.5966V47.4202H175.407Z" fill="white"/>
<path d="M183.326 47.4201V33.721H187.126V37.6168L186.583 36.4672C186.998 35.5092 187.637 34.7747 188.531 34.2638C189.425 33.7529 190.511 33.4974 191.82 33.4974V37.2016C191.661 37.1697 191.533 37.1378 191.373 37.1378C191.213 37.1058 191.086 37.1058 190.958 37.1058C189.84 37.1058 188.946 37.4252 188.276 38.0638C187.605 38.7025 187.286 39.6605 187.286 40.9697V47.4521H183.326V47.4201Z" fill="white"/>
</g>
<defs>
<linearGradient id="paint0_linear_354_2" x1="-4.46589e-06" y1="25.2634" x2="47.9356" y2="25.2634" gradientUnits="userSpaceOnUse">
<stop stop-color="#67D2FF"/>
<stop offset="0.0212788" stop-color="#5FD0FF"/>
<stop offset="0.1213" stop-color="#3DC6FF"/>
<stop offset="0.2235" stop-color="#22BEFF"/>
<stop offset="0.3274" stop-color="#0FB8FF"/>
<stop offset="0.434" stop-color="#04B5FF"/>
<stop offset="0.5476" stop-color="#00B4FF"/>
<stop offset="1" stop-color="#13B9FE"/>
</linearGradient>
<linearGradient id="paint1_linear_354_2" x1="74.2605" y1="21.9757" x2="86.9185" y2="0.0515159" gradientUnits="userSpaceOnUse">
<stop stop-color="#67D2FF"/>
<stop offset="0.0212788" stop-color="#5FD0FF"/>
<stop offset="0.1213" stop-color="#3DC6FF"/>
<stop offset="0.2235" stop-color="#22BEFF"/>
<stop offset="0.3274" stop-color="#0FB8FF"/>
<stop offset="0.434" stop-color="#04B5FF"/>
<stop offset="0.5476" stop-color="#00B4FF"/>
<stop offset="1" stop-color="#13B9FE"/>
</linearGradient>
<linearGradient id="paint2_linear_354_2" x1="97.506" y1="19.9715" x2="104.957" y2="7.06671" gradientUnits="userSpaceOnUse">
<stop stop-color="#67D2FF"/>
<stop offset="0.0212788" stop-color="#5FD0FF"/>
<stop offset="0.1213" stop-color="#3DC6FF"/>
<stop offset="0.2235" stop-color="#22BEFF"/>
<stop offset="0.3274" stop-color="#0FB8FF"/>
<stop offset="0.434" stop-color="#04B5FF"/>
<stop offset="0.5476" stop-color="#00B4FF"/>
<stop offset="1" stop-color="#13B9FE"/>
</linearGradient>
<linearGradient id="paint3_linear_354_2" x1="110.097" y1="19.0001" x2="118.183" y2="4.99498" gradientUnits="userSpaceOnUse">
<stop stop-color="#67D2FF"/>
<stop offset="0.0212788" stop-color="#5FD0FF"/>
<stop offset="0.1213" stop-color="#3DC6FF"/>
<stop offset="0.2235" stop-color="#22BEFF"/>
<stop offset="0.3274" stop-color="#0FB8FF"/>
<stop offset="0.434" stop-color="#04B5FF"/>
<stop offset="0.5476" stop-color="#00B4FF"/>
<stop offset="1" stop-color="#13B9FE"/>
</linearGradient>
<linearGradient id="paint4_linear_354_2" x1="124.62" y1="20.7512" x2="134.121" y2="4.29412" gradientUnits="userSpaceOnUse">
<stop stop-color="#67D2FF"/>
<stop offset="0.0212788" stop-color="#5FD0FF"/>
<stop offset="0.1213" stop-color="#3DC6FF"/>
<stop offset="0.2235" stop-color="#22BEFF"/>
<stop offset="0.3274" stop-color="#0FB8FF"/>
<stop offset="0.434" stop-color="#04B5FF"/>
<stop offset="0.5476" stop-color="#00B4FF"/>
<stop offset="1" stop-color="#13B9FE"/>
</linearGradient>
<linearGradient id="paint5_linear_354_2" x1="142.816" y1="19.2802" x2="149.91" y2="6.99238" gradientUnits="userSpaceOnUse">
<stop stop-color="#67D2FF"/>
<stop offset="0.0212788" stop-color="#5FD0FF"/>
<stop offset="0.1213" stop-color="#3DC6FF"/>
<stop offset="0.2235" stop-color="#22BEFF"/>
<stop offset="0.3274" stop-color="#0FB8FF"/>
<stop offset="0.434" stop-color="#04B5FF"/>
<stop offset="0.5476" stop-color="#00B4FF"/>
<stop offset="1" stop-color="#13B9FE"/>
</linearGradient>
<linearGradient id="paint6_linear_354_2" x1="157.095" y1="18.1711" x2="164.531" y2="5.29073" gradientUnits="userSpaceOnUse">
<stop stop-color="#67D2FF"/>
<stop offset="0.0212788" stop-color="#5FD0FF"/>
<stop offset="0.1213" stop-color="#3DC6FF"/>
<stop offset="0.2235" stop-color="#22BEFF"/>
<stop offset="0.3274" stop-color="#0FB8FF"/>
<stop offset="0.434" stop-color="#04B5FF"/>
<stop offset="0.5476" stop-color="#00B4FF"/>
<stop offset="1" stop-color="#13B9FE"/>
</linearGradient>
<linearGradient id="paint7_linear_354_2" x1="165.605" y1="18.3066" x2="174.902" y2="2.20468" gradientUnits="userSpaceOnUse">
<stop stop-color="#67D2FF"/>
<stop offset="0.0212788" stop-color="#5FD0FF"/>
<stop offset="0.1213" stop-color="#3DC6FF"/>
<stop offset="0.2235" stop-color="#22BEFF"/>
<stop offset="0.3274" stop-color="#0FB8FF"/>
<stop offset="0.434" stop-color="#04B5FF"/>
<stop offset="0.5476" stop-color="#00B4FF"/>
<stop offset="1" stop-color="#13B9FE"/>
</linearGradient>
<linearGradient id="paint8_linear_354_2" x1="178.85" y1="21.1733" x2="187.347" y2="6.45684" gradientUnits="userSpaceOnUse">
<stop stop-color="#67D2FF"/>
<stop offset="0.0212788" stop-color="#5FD0FF"/>
<stop offset="0.1213" stop-color="#3DC6FF"/>
<stop offset="0.2235" stop-color="#22BEFF"/>
<stop offset="0.3274" stop-color="#0FB8FF"/>
<stop offset="0.434" stop-color="#04B5FF"/>
<stop offset="0.5476" stop-color="#00B4FF"/>
<stop offset="1" stop-color="#13B9FE"/>
</linearGradient>
<linearGradient id="paint9_linear_354_2" x1="196.387" y1="24.182" x2="207.291" y2="5.29566" gradientUnits="userSpaceOnUse">
<stop stop-color="#67D2FF"/>
<stop offset="0.0212788" stop-color="#5FD0FF"/>
<stop offset="0.1213" stop-color="#3DC6FF"/>
<stop offset="0.2235" stop-color="#22BEFF"/>
<stop offset="0.3274" stop-color="#0FB8FF"/>
<stop offset="0.434" stop-color="#04B5FF"/>
<stop offset="0.5476" stop-color="#00B4FF"/>
<stop offset="1" stop-color="#13B9FE"/>
</linearGradient>
<clipPath id="clip0_354_2">
<rect width="209" height="50.1983" fill="white"/>
</clipPath>
</defs>
</svg>
