<svg xmlns="http://www.w3.org/2000/svg" version="1.1" xmlns:xlink="http://www.w3.org/1999/xlink" xmlns:svgjs="http://svgjs.dev/svgjs" width="1000" height="914" viewBox="0 0 1000 914"><g transform="matrix(1,0,0,1,0.6783329860233493,0.3707238099171377)"><svg viewBox="0 0 270 247" data-background-color="#ffffff" preserveAspectRatio="xMidYMid meet" height="914" width="1000" xmlns="http://www.w3.org/2000/svg" xmlns:xlink="http://www.w3.org/1999/xlink"><g id="tight-bounds" transform="matrix(1,0,0,1,-0.1828990772251302,-0.09997365579206985)"><svg viewBox="0 0 270.36604898345155 247.2" height="247.2" width="270.36604898345155"><g><svg viewBox="0 0 270.36604898345155 247.2" height="247.2" width="270.36604898345155"><g><svg viewBox="0 0 270.36604898345155 247.2" height="247.2" width="270.36604898345155"><g><svg viewBox="0 0 270.36604898345155 247.2" height="247.2" width="270.36604898345155"><g><svg viewBox="0 0 270.36604898345155 247.2" height="247.2" width="270.36604898345155"><path d="M269.733 53.02C268.462 27.36 264.84 20.227 264.84 20.227 253.718-6.202 239.838-0.506 227.369 3.292 205.354 3.446 183.429 9.091 161.465 12.119 115.364 12.581 68.869 4.986 22.997 23.717 18.688 29.464-4.47 24.846 0.766 56.304 2.139 69.39 7.147 83.913 6.995 95.922 7.681 98.026 8.634 93.202 9.041 96.23 10.465 104.39 12.791 100.541 14.697 105.365 12.041 118.246 13.947 128.971 15.765 140.21 12.562 143.135 8.456 141.749 6.613 151.449 6.423 158.479 5.393 157.145 4.262 156.837 3.436 156.632 1.771 157.402 2.05 159.608 3.003 167.152-1.089 171.514 1.478 178.904-0.289 186.91 2.698 193.838 2.292 202.511 2.241 204.255 2.52 205.744 2.965 206.154 4.935 208.361 2.063 212.672 2.368 217.342 22.578 249.262 44.503 227.195 65.209 241.872 70.585 231.608 66.543 245.516 68.691 243.36 70.369 240.846 71.589 251.263 73.483 245.362 73.775 243.668 73.331 239.665 74.373 240.435 74.919 240.846 75.402 240.743 75.479 238.382 75.593 234.841 74.589 237.048 74.322 235.201 77.207 225.861 76.496 248.081 79.203 247.158 79.076 244.438 78.288 240.538 79.902 241.051 81.503 237.151 81.554 233.918 82.978 242.693 83.029 244.592 83.283 245.926 83.69 246.85 88.138 237.305 92.562 250.237 97.226 245.926 100.086 241.205 102.832 248.492 105.73 246.696 106.746 245.259 107.776 242.693 108.755 247.004 120.741 247.928 133.515 244.079 144.878 247.158 175.243 241.41 207.693 249.518 239.711 241.923 247.261 238.998 255.103 234.841 262.463 231.506 262.463 231.506 268.424 222.371 268.424 181.316S269.695 145.393 269.886 112.703C270.076 80.013 270.966 78.679 269.695 53.02Z" opacity="1" fill="#fb0535" data-fill-palette-color="tertiary"></path><g transform="matrix(1,0,0,1,55.76832,26.230666666666668)"><svg width="158.82940898345154" viewBox="3.319999933242798 -36.18000030517578 30.880001068115234 37.86000061035156" height="194.73866666666666" data-palette-color="#ffffff"><path d="M34.2-25.37L34.2-25.37Q34.18-23.27 33.8-21.61 33.42-19.95 32.73-18.62 32.03-17.29 31.04-16.22 30.05-15.16 28.78-14.23L28.78-14.23Q26.34-12.48 23.44-11.58 20.53-10.69 17.6-10.69L17.6-10.69Q17.11-10.69 16.64-10.72 16.16-10.74 15.67-10.79L15.67-10.79 14.87-1.88 14.45-1.12Q14.4-1.03 13.62-0.73 12.84-0.44 11.67-0.05L11.67-0.05 10.13 0.46Q9.4 0.73 8.84 0.95 8.28 1.17 7.79 1.34 7.3 1.51 6.84 1.6 6.37 1.68 5.86 1.68L5.86 1.68Q5.52 1.68 5.32 1.51 5.13 1.34 5.13 0.85L5.13 0.85 5.4-3.32Q5.47-4.57 5.58-5.82 5.69-7.08 5.79-8.69L5.79-8.69 6.25-14.53Q6.4-16.31 6.52-18.09 6.64-19.87 6.76-21.48 6.88-23.1 6.98-24.5 7.08-25.9 7.15-26.95L7.15-26.95Q5.83-26.66 5.04-26.53 4.25-26.39 3.83-26.39L3.83-26.39Q3.32-26.39 3.32-26.83L3.32-26.83Q3.66-28.03 3.96-29.17L3.96-29.17Q4.22-30.15 4.5-31.19 4.79-32.23 4.98-32.93L4.98-32.93Q5.1-33.37 5.26-33.61 5.42-33.84 5.68-33.97 5.93-34.11 6.34-34.22 6.74-34.33 7.32-34.52L7.32-34.52Q7.79-34.67 8.63-34.85 9.47-35.03 10.56-35.22 11.65-35.4 12.92-35.57 14.18-35.74 15.49-35.88 16.8-36.01 18.07-36.1 19.34-36.18 20.46-36.18L20.46-36.18Q23.24-36.18 25.73-35.67 28.22-35.16 30.1-33.92 31.98-32.69 33.09-30.6 34.2-28.52 34.2-25.37ZM16.36-18.04L16.36-18.04Q16.36-17.77 16.46-17.57 16.55-17.36 16.99-17.36L16.99-17.36Q17.68-17.36 18.62-17.66 19.56-17.97 20.5-18.58 21.44-19.19 22.24-20.09 23.05-21 23.46-22.22L23.46-22.22Q23.63-22.71 23.74-23.46 23.85-24.22 23.85-25.24L23.85-25.24Q23.85-26.95 22.67-27.76 21.48-28.56 19.58-28.56L19.58-28.56Q19.26-28.56 18.86-28.53 18.46-28.49 18.1-28.39 17.75-28.3 17.5-28.16 17.26-28.03 17.24-27.81L17.24-27.81 17.19-27.27Q17.16-26.95 17.09-26.23 17.02-25.51 16.93-24.58 16.85-23.66 16.76-22.63 16.67-21.61 16.59-20.68 16.5-19.75 16.44-19.04 16.38-18.33 16.36-18.04Z" opacity="1" transform="matrix(1,0,0,1,0,0)" fill="#ffffff" class="undefined-text-0" data-fill-palette-color="quaternary" id="text-0"></path></svg></g></svg></g></svg></g></svg></g><g></g></svg></g><defs></defs></svg><rect width="270.36604898345155" height="247.2" fill="none" stroke="none" visibility="hidden"></rect></g></svg></g></svg>